<mxfile host="65bd71144e">
    <diagram id="jcE2LT8bqN6RCZ5QFCLc" name="Scheduler">
        <mxGraphModel dx="1715" dy="1785" grid="1" gridSize="10" guides="1" tooltips="1" connect="1" arrows="1" fold="1" page="1" pageScale="1" pageWidth="1654" pageHeight="2336" math="0" shadow="0">
            <root>
                <mxCell id="0"/>
                <mxCell id="1" parent="0"/>
                <mxCell id="MbTILXSACCyorwliIaPq-109" value="" style="group" vertex="1" connectable="0" parent="1">
                    <mxGeometry x="120" y="120" width="970" height="635" as="geometry"/>
                </mxCell>
                <mxCell id="30" value="" style="rounded=1;whiteSpace=wrap;html=1;fillColor=none;" parent="MbTILXSACCyorwliIaPq-109" vertex="1">
                    <mxGeometry x="790" y="110" width="180" height="420" as="geometry"/>
                </mxCell>
                <mxCell id="20" style="edgeStyle=none;html=1;" parent="MbTILXSACCyorwliIaPq-109" source="17" edge="1">
                    <mxGeometry relative="1" as="geometry">
                        <mxPoint x="360" y="120" as="targetPoint"/>
                    </mxGeometry>
                </mxCell>
                <mxCell id="24" style="edgeStyle=none;html=1;" parent="MbTILXSACCyorwliIaPq-109" source="17" target="22" edge="1">
                    <mxGeometry relative="1" as="geometry"/>
                </mxCell>
                <mxCell id="2" value="Actor" style="shape=umlActor;verticalLabelPosition=bottom;verticalAlign=top;html=1;outlineConnect=0;" parent="MbTILXSACCyorwliIaPq-109" vertex="1">
                    <mxGeometry y="250" width="30" height="60" as="geometry"/>
                </mxCell>
                <mxCell id="13" value="Database&lt;br&gt;&lt;div&gt;Cluster&lt;br&gt;(HA)&lt;/div&gt;" style="shape=cylinder3;whiteSpace=wrap;html=1;boundedLbl=1;backgroundOutline=1;size=15;" parent="MbTILXSACCyorwliIaPq-109" vertex="1">
                    <mxGeometry x="311.25" y="505" width="97.5" height="130" as="geometry"/>
                </mxCell>
                <mxCell id="39" style="edgeStyle=none;html=1;entryX=0;entryY=0.5;entryDx=0;entryDy=0;" parent="MbTILXSACCyorwliIaPq-109" source="22" target="25" edge="1">
                    <mxGeometry relative="1" as="geometry"/>
                </mxCell>
                <mxCell id="40" style="edgeStyle=none;html=1;entryX=0;entryY=0.5;entryDx=0;entryDy=0;" parent="MbTILXSACCyorwliIaPq-109" source="22" target="26" edge="1">
                    <mxGeometry relative="1" as="geometry"/>
                </mxCell>
                <mxCell id="41" style="edgeStyle=none;html=1;entryX=0;entryY=0.5;entryDx=0;entryDy=0;" parent="MbTILXSACCyorwliIaPq-109" source="22" target="27" edge="1">
                    <mxGeometry relative="1" as="geometry"/>
                </mxCell>
                <mxCell id="42" style="edgeStyle=none;html=1;entryX=0;entryY=0.5;entryDx=0;entryDy=0;" parent="MbTILXSACCyorwliIaPq-109" source="22" target="28" edge="1">
                    <mxGeometry relative="1" as="geometry"/>
                </mxCell>
                <mxCell id="43" style="edgeStyle=none;html=1;entryX=0;entryY=0.5;entryDx=0;entryDy=0;exitX=0.865;exitY=0.955;exitDx=0;exitDy=0;exitPerimeter=0;" parent="MbTILXSACCyorwliIaPq-109" source="22" target="29" edge="1">
                    <mxGeometry relative="1" as="geometry"/>
                </mxCell>
                <mxCell id="22" value="Worker Queue" style="strokeWidth=2;html=1;shape=mxgraph.flowchart.direct_data;whiteSpace=wrap;align=center;" parent="MbTILXSACCyorwliIaPq-109" vertex="1">
                    <mxGeometry x="530" y="262.5" width="150" height="95" as="geometry"/>
                </mxCell>
                <mxCell id="34" value="" style="group" parent="MbTILXSACCyorwliIaPq-109" vertex="1" connectable="0">
                    <mxGeometry x="280" y="160" width="160" height="290" as="geometry"/>
                </mxCell>
                <mxCell id="17" value="" style="rounded=0;whiteSpace=wrap;html=1;labelBackgroundColor=none;fontColor=none;noLabel=1;fillColor=none;" parent="34" vertex="1">
                    <mxGeometry width="160" height="290" as="geometry"/>
                </mxCell>
                <mxCell id="3" value="Scheduler 1" style="rounded=0;whiteSpace=wrap;html=1;flipV=1;fillColor=#f8cecc;strokeColor=#b85450;" parent="34" vertex="1">
                    <mxGeometry x="20" y="20" width="120" height="60" as="geometry"/>
                </mxCell>
                <mxCell id="4" value="Scheduler 2&lt;div&gt;(Leader)&lt;/div&gt;" style="rounded=0;whiteSpace=wrap;html=1;fillColor=#d5e8d4;strokeColor=#82b366;" parent="34" vertex="1">
                    <mxGeometry x="20" y="100" width="120" height="60" as="geometry"/>
                </mxCell>
                <mxCell id="5" value="Scheduler 3" style="rounded=0;whiteSpace=wrap;html=1;" parent="34" vertex="1">
                    <mxGeometry x="20" y="180" width="120" height="60" as="geometry"/>
                </mxCell>
                <mxCell id="18" value="Scheduler cluster&lt;br&gt;(active - passive)" style="text;html=1;align=center;verticalAlign=middle;whiteSpace=wrap;rounded=0;" parent="34" vertex="1">
                    <mxGeometry x="10" y="250" width="140" height="30" as="geometry"/>
                </mxCell>
                <mxCell id="35" style="edgeStyle=none;html=1;" parent="MbTILXSACCyorwliIaPq-109" source="18" target="13" edge="1">
                    <mxGeometry relative="1" as="geometry"/>
                </mxCell>
                <mxCell id="25" value="Worker 1" style="rounded=1;whiteSpace=wrap;html=1;" parent="MbTILXSACCyorwliIaPq-109" vertex="1">
                    <mxGeometry x="820" y="130" width="120" height="60" as="geometry"/>
                </mxCell>
                <mxCell id="26" value="Worker 2" style="rounded=1;whiteSpace=wrap;html=1;" parent="MbTILXSACCyorwliIaPq-109" vertex="1">
                    <mxGeometry x="820" y="203" width="120" height="60" as="geometry"/>
                </mxCell>
                <mxCell id="27" value="Worker 3" style="rounded=1;whiteSpace=wrap;html=1;" parent="MbTILXSACCyorwliIaPq-109" vertex="1">
                    <mxGeometry x="820" y="275" width="120" height="60" as="geometry"/>
                </mxCell>
                <mxCell id="28" value="Worker 4" style="rounded=1;whiteSpace=wrap;html=1;" parent="MbTILXSACCyorwliIaPq-109" vertex="1">
                    <mxGeometry x="820" y="348" width="120" height="60" as="geometry"/>
                </mxCell>
                <mxCell id="29" value="Worker 5" style="rounded=1;whiteSpace=wrap;html=1;" parent="MbTILXSACCyorwliIaPq-109" vertex="1">
                    <mxGeometry x="820" y="420" width="120" height="60" as="geometry"/>
                </mxCell>
                <mxCell id="31" value="Worker Pool" style="text;html=1;align=center;verticalAlign=middle;whiteSpace=wrap;rounded=0;" parent="MbTILXSACCyorwliIaPq-109" vertex="1">
                    <mxGeometry x="835" y="490" width="90" height="30" as="geometry"/>
                </mxCell>
                <mxCell id="51" value="Leader Election&lt;div&gt;Mechanism&lt;/div&gt;" style="ellipse;whiteSpace=wrap;html=1;aspect=fixed;" parent="MbTILXSACCyorwliIaPq-109" vertex="1">
                    <mxGeometry x="320" y="40" width="80" height="80" as="geometry"/>
                </mxCell>
                <mxCell id="61" value="" style="edgeStyle=none;html=1;" edge="1" parent="MbTILXSACCyorwliIaPq-109" source="52" target="22">
                    <mxGeometry relative="1" as="geometry"/>
                </mxCell>
                <mxCell id="52" value="Job 1&lt;br&gt;Send User A - email" style="ellipse;whiteSpace=wrap;html=1;" vertex="1" parent="MbTILXSACCyorwliIaPq-109">
                    <mxGeometry x="460" y="110" width="120" height="80" as="geometry"/>
                </mxCell>
                <mxCell id="54" value="Job 1&lt;br&gt;Send User A - email" style="ellipse;whiteSpace=wrap;html=1;" vertex="1" parent="MbTILXSACCyorwliIaPq-109">
                    <mxGeometry x="480" y="380" width="120" height="80" as="geometry"/>
                </mxCell>
                <mxCell id="55" style="edgeStyle=none;html=1;" edge="1" parent="MbTILXSACCyorwliIaPq-109" source="5" target="54">
                    <mxGeometry relative="1" as="geometry"/>
                </mxCell>
                <mxCell id="56" style="edgeStyle=none;html=1;" edge="1" parent="MbTILXSACCyorwliIaPq-109" source="3" target="52">
                    <mxGeometry relative="1" as="geometry"/>
                </mxCell>
                <mxCell id="57" value="Load&lt;br&gt;Balancer" style="whiteSpace=wrap;html=1;aspect=fixed;" vertex="1" parent="MbTILXSACCyorwliIaPq-109">
                    <mxGeometry x="120" y="250" width="80" height="80" as="geometry"/>
                </mxCell>
                <mxCell id="59" style="edgeStyle=none;html=1;entryX=0;entryY=0.448;entryDx=0;entryDy=0;entryPerimeter=0;" edge="1" parent="MbTILXSACCyorwliIaPq-109" source="57" target="17">
                    <mxGeometry relative="1" as="geometry"/>
                </mxCell>
                <mxCell id="60" style="edgeStyle=none;html=1;entryX=0.046;entryY=0.367;entryDx=0;entryDy=0;entryPerimeter=0;" edge="1" parent="MbTILXSACCyorwliIaPq-109" source="2" target="57">
                    <mxGeometry relative="1" as="geometry"/>
                </mxCell>
                <mxCell id="107" value="Dead Letter&lt;br&gt;Queue" style="strokeWidth=2;html=1;shape=mxgraph.flowchart.direct_data;whiteSpace=wrap;align=center;" vertex="1" parent="MbTILXSACCyorwliIaPq-109">
                    <mxGeometry x="630" width="150" height="95" as="geometry"/>
                </mxCell>
                <mxCell id="108" style="edgeStyle=none;html=1;entryX=0.5;entryY=1;entryDx=0;entryDy=0;entryPerimeter=0;" edge="1" parent="MbTILXSACCyorwliIaPq-109" source="22" target="107">
                    <mxGeometry relative="1" as="geometry"/>
                </mxCell>
            </root>
        </mxGraphModel>
    </diagram>
    <diagram id="x1LT5XfgB1DZLaSTdEuI" name="Examples">
        <mxGraphModel dx="686" dy="714" grid="1" gridSize="10" guides="1" tooltips="1" connect="1" arrows="1" fold="1" page="1" pageScale="1" pageWidth="850" pageHeight="1100" math="0" shadow="0">
            <root>
                <mxCell id="0"/>
                <mxCell id="1" parent="0"/>
                <mxCell id="dxn4N0JqMZ71XpZwbvkH-1" value="Database&lt;br&gt;&lt;div&gt;Cluster&lt;/div&gt;" style="shape=cylinder3;whiteSpace=wrap;html=1;boundedLbl=1;backgroundOutline=1;size=15;" vertex="1" parent="1">
                    <mxGeometry x="171.25" y="1185" width="97.5" height="130" as="geometry"/>
                </mxCell>
                <mxCell id="dxn4N0JqMZ71XpZwbvkH-2" value="" style="group" vertex="1" connectable="0" parent="1">
                    <mxGeometry x="140" y="840" width="160" height="290" as="geometry"/>
                </mxCell>
                <mxCell id="dxn4N0JqMZ71XpZwbvkH-3" value="" style="rounded=0;whiteSpace=wrap;html=1;labelBackgroundColor=none;fontColor=none;noLabel=1;fillColor=none;" vertex="1" parent="dxn4N0JqMZ71XpZwbvkH-2">
                    <mxGeometry width="160" height="290" as="geometry"/>
                </mxCell>
                <mxCell id="dxn4N0JqMZ71XpZwbvkH-4" value="Scheduler 1&lt;div&gt;30%&lt;/div&gt;" style="rounded=0;whiteSpace=wrap;html=1;flipV=1;fillColor=#f8cecc;strokeColor=#b85450;" vertex="1" parent="dxn4N0JqMZ71XpZwbvkH-2">
                    <mxGeometry x="20" y="20" width="120" height="60" as="geometry"/>
                </mxCell>
                <mxCell id="dxn4N0JqMZ71XpZwbvkH-5" value="Scheduler 2&lt;br&gt;45%" style="rounded=0;whiteSpace=wrap;html=1;" vertex="1" parent="dxn4N0JqMZ71XpZwbvkH-2">
                    <mxGeometry x="20" y="100" width="120" height="60" as="geometry"/>
                </mxCell>
                <mxCell id="dxn4N0JqMZ71XpZwbvkH-6" value="Scheduler 3&lt;br&gt;45%" style="rounded=0;whiteSpace=wrap;html=1;" vertex="1" parent="dxn4N0JqMZ71XpZwbvkH-2">
                    <mxGeometry x="20" y="180" width="120" height="60" as="geometry"/>
                </mxCell>
                <mxCell id="dxn4N0JqMZ71XpZwbvkH-7" value="Scheduler cluster&lt;br&gt;(active - active)" style="text;html=1;align=center;verticalAlign=middle;whiteSpace=wrap;rounded=0;" vertex="1" parent="dxn4N0JqMZ71XpZwbvkH-2">
                    <mxGeometry x="10" y="250" width="140" height="30" as="geometry"/>
                </mxCell>
                <mxCell id="dxn4N0JqMZ71XpZwbvkH-8" style="edgeStyle=none;html=1;" edge="1" parent="1" source="dxn4N0JqMZ71XpZwbvkH-7" target="dxn4N0JqMZ71XpZwbvkH-1">
                    <mxGeometry relative="1" as="geometry"/>
                </mxCell>
                <mxCell id="dxn4N0JqMZ71XpZwbvkH-9" value="" style="group" vertex="1" connectable="0" parent="1">
                    <mxGeometry x="480" y="830" width="440" height="420" as="geometry"/>
                </mxCell>
                <mxCell id="dxn4N0JqMZ71XpZwbvkH-10" value="" style="rounded=1;whiteSpace=wrap;html=1;fillColor=none;" vertex="1" parent="dxn4N0JqMZ71XpZwbvkH-9">
                    <mxGeometry x="260" width="180" height="420" as="geometry"/>
                </mxCell>
                <mxCell id="dxn4N0JqMZ71XpZwbvkH-11" style="edgeStyle=none;html=1;entryX=0;entryY=0.5;entryDx=0;entryDy=0;" edge="1" parent="dxn4N0JqMZ71XpZwbvkH-9" source="dxn4N0JqMZ71XpZwbvkH-16" target="dxn4N0JqMZ71XpZwbvkH-17">
                    <mxGeometry relative="1" as="geometry"/>
                </mxCell>
                <mxCell id="dxn4N0JqMZ71XpZwbvkH-12" style="edgeStyle=none;html=1;entryX=0;entryY=0.5;entryDx=0;entryDy=0;" edge="1" parent="dxn4N0JqMZ71XpZwbvkH-9" source="dxn4N0JqMZ71XpZwbvkH-16" target="dxn4N0JqMZ71XpZwbvkH-18">
                    <mxGeometry relative="1" as="geometry"/>
                </mxCell>
                <mxCell id="dxn4N0JqMZ71XpZwbvkH-13" style="edgeStyle=none;html=1;entryX=0;entryY=0.5;entryDx=0;entryDy=0;" edge="1" parent="dxn4N0JqMZ71XpZwbvkH-9" source="dxn4N0JqMZ71XpZwbvkH-16" target="dxn4N0JqMZ71XpZwbvkH-19">
                    <mxGeometry relative="1" as="geometry"/>
                </mxCell>
                <mxCell id="dxn4N0JqMZ71XpZwbvkH-14" style="edgeStyle=none;html=1;entryX=0;entryY=0.5;entryDx=0;entryDy=0;" edge="1" parent="dxn4N0JqMZ71XpZwbvkH-9" source="dxn4N0JqMZ71XpZwbvkH-16" target="dxn4N0JqMZ71XpZwbvkH-20">
                    <mxGeometry relative="1" as="geometry"/>
                </mxCell>
                <mxCell id="dxn4N0JqMZ71XpZwbvkH-15" style="edgeStyle=none;html=1;entryX=0;entryY=0.5;entryDx=0;entryDy=0;exitX=0.865;exitY=0.955;exitDx=0;exitDy=0;exitPerimeter=0;" edge="1" parent="dxn4N0JqMZ71XpZwbvkH-9" source="dxn4N0JqMZ71XpZwbvkH-16" target="dxn4N0JqMZ71XpZwbvkH-21">
                    <mxGeometry relative="1" as="geometry"/>
                </mxCell>
                <mxCell id="dxn4N0JqMZ71XpZwbvkH-16" value="Message Broker" style="strokeWidth=2;html=1;shape=mxgraph.flowchart.direct_data;whiteSpace=wrap;align=center;" vertex="1" parent="dxn4N0JqMZ71XpZwbvkH-9">
                    <mxGeometry y="152.5" width="150" height="95" as="geometry"/>
                </mxCell>
                <mxCell id="dxn4N0JqMZ71XpZwbvkH-17" value="Worker 1" style="rounded=1;whiteSpace=wrap;html=1;" vertex="1" parent="dxn4N0JqMZ71XpZwbvkH-9">
                    <mxGeometry x="290" y="20" width="120" height="60" as="geometry"/>
                </mxCell>
                <mxCell id="dxn4N0JqMZ71XpZwbvkH-18" value="Worker 2" style="rounded=1;whiteSpace=wrap;html=1;" vertex="1" parent="dxn4N0JqMZ71XpZwbvkH-9">
                    <mxGeometry x="290" y="93" width="120" height="60" as="geometry"/>
                </mxCell>
                <mxCell id="dxn4N0JqMZ71XpZwbvkH-19" value="Worker 3" style="rounded=1;whiteSpace=wrap;html=1;" vertex="1" parent="dxn4N0JqMZ71XpZwbvkH-9">
                    <mxGeometry x="290" y="165" width="120" height="60" as="geometry"/>
                </mxCell>
                <mxCell id="dxn4N0JqMZ71XpZwbvkH-20" value="Worker 4" style="rounded=1;whiteSpace=wrap;html=1;" vertex="1" parent="dxn4N0JqMZ71XpZwbvkH-9">
                    <mxGeometry x="290" y="238" width="120" height="60" as="geometry"/>
                </mxCell>
                <mxCell id="dxn4N0JqMZ71XpZwbvkH-21" value="Worker 5" style="rounded=1;whiteSpace=wrap;html=1;" vertex="1" parent="dxn4N0JqMZ71XpZwbvkH-9">
                    <mxGeometry x="290" y="310" width="120" height="60" as="geometry"/>
                </mxCell>
                <mxCell id="dxn4N0JqMZ71XpZwbvkH-22" value="Worker Pool" style="text;html=1;align=center;verticalAlign=middle;whiteSpace=wrap;rounded=0;" vertex="1" parent="dxn4N0JqMZ71XpZwbvkH-9">
                    <mxGeometry x="305" y="380" width="90" height="30" as="geometry"/>
                </mxCell>
                <mxCell id="dxn4N0JqMZ71XpZwbvkH-23" value="Push" style="text;html=1;align=center;verticalAlign=middle;whiteSpace=wrap;rounded=0;" vertex="1" parent="dxn4N0JqMZ71XpZwbvkH-9">
                    <mxGeometry x="45" y="108" width="60" height="30" as="geometry"/>
                </mxCell>
                <mxCell id="dxn4N0JqMZ71XpZwbvkH-24" value="d" style="group" vertex="1" connectable="0" parent="1">
                    <mxGeometry x="1020" y="830" width="440" height="420" as="geometry"/>
                </mxCell>
                <mxCell id="dxn4N0JqMZ71XpZwbvkH-25" value="" style="rounded=1;whiteSpace=wrap;html=1;fillColor=none;" vertex="1" parent="dxn4N0JqMZ71XpZwbvkH-24">
                    <mxGeometry x="260" width="180" height="420" as="geometry"/>
                </mxCell>
                <mxCell id="dxn4N0JqMZ71XpZwbvkH-26" style="edgeStyle=none;html=1;entryX=0;entryY=0.5;entryDx=0;entryDy=0;startArrow=classic;startFill=1;endArrow=none;endFill=0;" edge="1" parent="dxn4N0JqMZ71XpZwbvkH-24" source="dxn4N0JqMZ71XpZwbvkH-32" target="dxn4N0JqMZ71XpZwbvkH-33">
                    <mxGeometry relative="1" as="geometry"/>
                </mxCell>
                <mxCell id="dxn4N0JqMZ71XpZwbvkH-27" value="Fetch jobs" style="edgeLabel;html=1;align=center;verticalAlign=middle;resizable=0;points=[];" vertex="1" connectable="0" parent="dxn4N0JqMZ71XpZwbvkH-26">
                    <mxGeometry x="-0.249" relative="1" as="geometry">
                        <mxPoint as="offset"/>
                    </mxGeometry>
                </mxCell>
                <mxCell id="dxn4N0JqMZ71XpZwbvkH-28" style="edgeStyle=none;html=1;entryX=0;entryY=0.5;entryDx=0;entryDy=0;startArrow=classic;startFill=1;endArrow=none;endFill=0;" edge="1" parent="dxn4N0JqMZ71XpZwbvkH-24" source="dxn4N0JqMZ71XpZwbvkH-32" target="dxn4N0JqMZ71XpZwbvkH-34">
                    <mxGeometry relative="1" as="geometry"/>
                </mxCell>
                <mxCell id="dxn4N0JqMZ71XpZwbvkH-29" style="edgeStyle=none;html=1;entryX=0;entryY=0.5;entryDx=0;entryDy=0;startArrow=classic;startFill=1;endArrow=none;endFill=0;" edge="1" parent="dxn4N0JqMZ71XpZwbvkH-24" source="dxn4N0JqMZ71XpZwbvkH-32" target="dxn4N0JqMZ71XpZwbvkH-35">
                    <mxGeometry relative="1" as="geometry"/>
                </mxCell>
                <mxCell id="dxn4N0JqMZ71XpZwbvkH-30" style="edgeStyle=none;html=1;entryX=0;entryY=0.5;entryDx=0;entryDy=0;startArrow=classic;startFill=1;endArrow=none;endFill=0;" edge="1" parent="dxn4N0JqMZ71XpZwbvkH-24" source="dxn4N0JqMZ71XpZwbvkH-32" target="dxn4N0JqMZ71XpZwbvkH-36">
                    <mxGeometry relative="1" as="geometry"/>
                </mxCell>
                <mxCell id="dxn4N0JqMZ71XpZwbvkH-31" style="edgeStyle=none;html=1;entryX=0;entryY=0.5;entryDx=0;entryDy=0;startArrow=classic;startFill=1;endArrow=none;endFill=0;" edge="1" parent="dxn4N0JqMZ71XpZwbvkH-24" target="dxn4N0JqMZ71XpZwbvkH-37">
                    <mxGeometry relative="1" as="geometry">
                        <mxPoint x="140" y="240" as="sourcePoint"/>
                    </mxGeometry>
                </mxCell>
                <mxCell id="dxn4N0JqMZ71XpZwbvkH-32" value="Message Broker" style="strokeWidth=2;html=1;shape=mxgraph.flowchart.direct_data;whiteSpace=wrap;align=center;" vertex="1" parent="dxn4N0JqMZ71XpZwbvkH-24">
                    <mxGeometry y="152.5" width="150" height="95" as="geometry"/>
                </mxCell>
                <mxCell id="dxn4N0JqMZ71XpZwbvkH-33" value="Worker 1" style="rounded=1;whiteSpace=wrap;html=1;" vertex="1" parent="dxn4N0JqMZ71XpZwbvkH-24">
                    <mxGeometry x="290" y="20" width="120" height="60" as="geometry"/>
                </mxCell>
                <mxCell id="dxn4N0JqMZ71XpZwbvkH-34" value="Worker 2" style="rounded=1;whiteSpace=wrap;html=1;" vertex="1" parent="dxn4N0JqMZ71XpZwbvkH-24">
                    <mxGeometry x="290" y="93" width="120" height="60" as="geometry"/>
                </mxCell>
                <mxCell id="dxn4N0JqMZ71XpZwbvkH-35" value="Worker 3" style="rounded=1;whiteSpace=wrap;html=1;" vertex="1" parent="dxn4N0JqMZ71XpZwbvkH-24">
                    <mxGeometry x="290" y="165" width="120" height="60" as="geometry"/>
                </mxCell>
                <mxCell id="dxn4N0JqMZ71XpZwbvkH-36" value="Worker 4" style="rounded=1;whiteSpace=wrap;html=1;" vertex="1" parent="dxn4N0JqMZ71XpZwbvkH-24">
                    <mxGeometry x="290" y="238" width="120" height="60" as="geometry"/>
                </mxCell>
                <mxCell id="dxn4N0JqMZ71XpZwbvkH-37" value="Worker 5" style="rounded=1;whiteSpace=wrap;html=1;" vertex="1" parent="dxn4N0JqMZ71XpZwbvkH-24">
                    <mxGeometry x="290" y="310" width="120" height="60" as="geometry"/>
                </mxCell>
                <mxCell id="dxn4N0JqMZ71XpZwbvkH-38" value="Worker Pool" style="text;html=1;align=center;verticalAlign=middle;whiteSpace=wrap;rounded=0;" vertex="1" parent="dxn4N0JqMZ71XpZwbvkH-24">
                    <mxGeometry x="305" y="380" width="90" height="30" as="geometry"/>
                </mxCell>
                <mxCell id="dxn4N0JqMZ71XpZwbvkH-39" value="Pull" style="text;html=1;align=center;verticalAlign=middle;whiteSpace=wrap;rounded=0;" vertex="1" parent="dxn4N0JqMZ71XpZwbvkH-24">
                    <mxGeometry x="45" y="108" width="60" height="30" as="geometry"/>
                </mxCell>
            </root>
        </mxGraphModel>
    </diagram>
</mxfile>